<svg xmlns="http://www.w3.org/2000/svg" viewBox="0 0 96 28"><defs><style>.cls-1{fill:#f7f4e5;opacity:0.7;}.cls-2{fill:#2d8e8c;}</style></defs><g id="レイヤー_2" data-name="レイヤー 2"><g id="sysbtn_hover" data-name="sysbtn hover"><g id="auto2"><g id="button"><path class="cls-1" d="M14,27A13,13,0,0,1,14,1H82a13,13,0,0,1,0,26Z"/><path id="sysbtn" class="cls-2" d="M82,2a12,12,0,0,1,0,24H14A12,12,0,0,1,14,2H82m0-2H14a14,14,0,0,0,0,28H82A14,14,0,0,0,82,0Z"/></g><path class="cls-2" d="M33.53,7.48H32.38l-4,11.23-1.5.45v.16h4v-.16l-1.86-.45L30,16.06h4.69l1,2.65-1.84.45v.16h5.47v-.16l-1.55-.45Zm-3.36,8.1,2.14-6.1,2.2,6.1Zm25.6,3.07c-.85,0-1.25-.61-1.25-1.5V11h3v-.4h-3V8.28h-.16L52.63,10.6h-1.2V11h1.33v6.31a2.15,2.15,0,0,0,2.34,2.17,3.68,3.68,0,0,0,2.64-1.18l-.11-.19A3.67,3.67,0,0,1,55.77,18.65Zm7.87-8.21A4.23,4.23,0,0,0,59.21,15a4.44,4.44,0,1,0,8.87,0A4.23,4.23,0,0,0,63.64,10.44Zm0,8.64c-1.63,0-2.51-1.42-2.51-4.13s.88-4.11,2.51-4.11,2.52,1.41,2.52,4.11S65.27,19.08,63.64,19.08Zm-15-8.64h-.16L45.66,11v.16l1.17.51v6.26a2.83,2.83,0,0,1-2,.8,2,2,0,0,1-2-2.11V10.44h-.16L39.88,11v.16l1.18.51v5.2a2.58,2.58,0,0,0,2.79,2.66,4.54,4.54,0,0,0,3-1.2l.25,1.2h.16L49.92,19v-.16l-1.33-.48Z"/></g></g></g></svg>