<svg xmlns="http://www.w3.org/2000/svg" viewBox="0 0 28 28"><defs><style>.cls-1{fill:#f7f4e5;opacity:0.8;}.cls-2{fill:#2d8e8c;}</style></defs><g id="レイヤー_2" data-name="レイヤー 2"><g id="sysbtn_hover" data-name="sysbtn hover"><g id="close2"><circle class="cls-1" cx="14" cy="14" r="13"/><path class="cls-2" d="M14,2A12,12,0,1,1,2,14,12,12,0,0,1,14,2m0-2A14,14,0,1,0,28,14,14,14,0,0,0,14,0Z"/><path class="cls-2" d="M14,15.13,9.61,19.57a.67.67,0,0,1-.48.22,1,1,0,0,1-.91-.93.65.65,0,0,1,.21-.48L12.9,14,8.43,9.62a.73.73,0,0,1-.21-.49,1,1,0,0,1,.91-.92.67.67,0,0,1,.48.22L14,12.87l4.39-4.44a.62.62,0,0,1,.48-.22,1,1,0,0,1,.91.93.69.69,0,0,1-.21.48L15.1,14l4.47,4.39a.69.69,0,0,1,.21.49,1,1,0,0,1-.9.92.65.65,0,0,1-.49-.23Z"/></g></g></g></svg>