<svg xmlns="http://www.w3.org/2000/svg" viewBox="0 0 96 28"><defs><style>.cls-1{fill:#f7f4e5;opacity:0.7;}.cls-2{fill:#2d8e8c;}</style></defs><g id="レイヤー_2" data-name="レイヤー 2"><g id="sysbtn_hover" data-name="sysbtn hover"><g id="load2"><g id="button"><path class="cls-1" d="M14,27A13,13,0,0,1,14,1H82a13,13,0,0,1,0,26Z"/><path id="sysbtn" class="cls-2" d="M82,2a12,12,0,0,1,0,24H14A12,12,0,0,1,14,2H82m0-2H14a14,14,0,0,0,0,28H82A14,14,0,0,0,82,0Z"/></g><path class="cls-2" d="M36,17.59l-2.8,1.25H30.91V8.09l1.81-.45V7.48H27.57v.16L29,8.09V18.71l-1.47.45v.16h8.61v-.16l-.07-1.57Zm31.27.74v-12h-.16L64.27,7v.16l1.19.45v3.42a3.72,3.72,0,0,0-2.13-.62c-2.61,0-4.21,2-4.21,4.78s1.44,4.26,3.59,4.26a4,4,0,0,0,2.78-1.17l.24,1.17h.16L68.55,19v-.16ZM65.46,18a2.47,2.47,0,0,1-1.78.8c-1.7,0-2.64-1.5-2.64-4s.93-4,2.61-4a2.88,2.88,0,0,1,1.81.65ZM56,13.1c0-1.61-1.28-2.66-3.1-2.66a6.26,6.26,0,0,0-3.39,1.05l.06.21A6.05,6.05,0,0,1,52,11.24a2,2,0,0,1,2.24,2.1v1c-3.28.08-5.45,1.33-5.45,3.15,0,1.27,1,2,2.52,2a4.31,4.31,0,0,0,3-1.2l.24,1.2h.16L57.28,19v-.16L56,18.33Zm-1.76,4.77a3.17,3.17,0,0,1-2.11.83,1.37,1.37,0,0,1-1.5-1.54c0-1.5,1.34-2.42,3.61-2.53ZM42.37,10.44A4.23,4.23,0,0,0,37.93,15a4.44,4.44,0,1,0,8.87,0A4.23,4.23,0,0,0,42.37,10.44Zm0,8.64c-1.63,0-2.51-1.42-2.51-4.13s.88-4.11,2.51-4.11,2.51,1.41,2.51,4.11S44,19.08,42.37,19.08Z"/></g></g></g></svg>