<svg xmlns="http://www.w3.org/2000/svg" viewBox="0 0 96 28"><defs><style>.cls-1{fill:#3d997a;}</style></defs><g id="レイヤー_2" data-name="レイヤー 2"><g id="sysbtn"><g id="log"><path id="sysbtn-2" data-name="sysbtn" class="cls-1" d="M82,2a12,12,0,0,1,0,24H14A12,12,0,0,1,14,2H82m0-2H14a14,14,0,0,0,0,28H82A14,14,0,0,0,82,0Z"/><path class="cls-1" d="M32.91,13.1c0-1.61-1.28-2.66-3.1-2.66a6.26,6.26,0,0,0-3.39,1.05l.06.21a6.05,6.05,0,0,1,2.43-.46,2,2,0,0,1,2.24,2.1v1c-3.28.08-5.45,1.33-5.45,3.15,0,1.27,1,2,2.52,2a4.31,4.31,0,0,0,3-1.2l.24,1.2h.16L34.24,19v-.16l-1.33-.48Zm-1.76,4.77A3.17,3.17,0,0,1,29,18.7a1.37,1.37,0,0,1-1.5-1.54c0-1.5,1.34-2.42,3.61-2.53Zm9.59.72c-1.7,0-2.8-1.41-2.8-3.89s1-3.86,2.65-3.86L43,12.52l.18,0,.09-1.47a6,6,0,0,0-2.77-.64c-2.65,0-4.45,1.9-4.45,4.75,0,2.58,1.59,4.29,3.89,4.29A5.25,5.25,0,0,0,43.62,18l-.15-.17A5.36,5.36,0,0,1,40.74,18.59Zm-20.5-5.41c1.86-.34,3-1.38,3-2.81,0-1.72-1.62-2.89-4.05-2.89H13.74v.16l1.48.45V18.71l-1.48.45v.16h6c2.43,0,4.05-1.23,4.05-3.1C23.75,14.57,22.37,13.42,20.24,13.18ZM17.09,8h1.42c1.75,0,2.68.86,2.68,2.49S20.26,13,18.51,13H17.09ZM18.9,18.84H17.09V13.45H18.9a2.44,2.44,0,0,1,2.77,2.69A2.44,2.44,0,0,1,18.9,18.84Zm61-.91H76c-.59,0-.91-.22-.91-.67a1.6,1.6,0,0,1,.59-1.06,4.62,4.62,0,0,0,2,.38c2.24,0,3.74-1.23,3.74-3.07a2.81,2.81,0,0,0-1-2.18h1.8v-.16l-.24-1.29h-.16L79.87,11a4.46,4.46,0,0,0-2.25-.54c-2.28,0-3.78,1.23-3.78,3.07A2.78,2.78,0,0,0,75.3,16a2.81,2.81,0,0,0-1.11,2,1.2,1.2,0,0,0,.63,1.08c-1,.5-1.56,1.11-1.56,1.88,0,1,1.49,1.69,4.48,1.69s4.73-1,4.73-2.62C82.47,18.78,81.46,17.93,79.94,17.93Zm-2.32-7.09c1.25,0,1.88.85,1.88,2.67s-.63,2.66-1.88,2.66-1.92-.83-1.92-2.66S76.35,10.84,77.62,10.84Zm.12,11.44c-2.08,0-3.15-.59-3.15-1.71a1.65,1.65,0,0,1,.55-1.3,2.35,2.35,0,0,0,.8.13h3.9c.9,0,1.39.42,1.39,1.17C81.23,21.69,80,22.28,77.74,22.28ZM67,10.44A4.23,4.23,0,0,0,62.56,15a4.44,4.44,0,1,0,8.87,0A4.23,4.23,0,0,0,67,10.44Zm0,8.64c-1.63,0-2.51-1.42-2.51-4.13s.88-4.11,2.51-4.11,2.52,1.41,2.52,4.11S68.62,19.08,67,19.08ZM59.36,6.36H59.2L56.43,7v.16l1.17.45V18.71l-1.2.45v.16h4.18v-.16l-1.22-.45Zm-11.12,0h-.16L45.31,7v.16l1.17.45V18.71l-1.2.45v.16h4.29v-.16l-1.33-.45ZM50.45,14l3.07-2.77,1.17-.46V10.6h-3.1v.16l1.23.45-4,3.6,3.28,3.9-1,.45v.16h4.34v-.16l-1.23-.45Z"/></g></g></g></svg>