<svg xmlns="http://www.w3.org/2000/svg" viewBox="0 0 96 28"><defs><style>.cls-1{fill:#3d997a;}</style></defs><g id="レイヤー_2" data-name="レイヤー 2"><g id="sysbtn"><g id="menu"><path id="sysbtn-2" data-name="sysbtn" class="cls-1" d="M82,2a12,12,0,0,1,0,24H14A12,12,0,0,1,14,2H82m0-2H14a14,14,0,0,0,0,28H82A14,14,0,0,0,82,0Z"/><path class="cls-1" d="M31.4,15.46l-4.26-8H23.72v.16l1.54.45V18.71l-1.54.45v.16h3.9v-.16l-1.77-.45V9l4.48,8.4H31L35.5,9.14v9.57l-1.79.45v.16h5.13v-.16l-1.45-.45V8.09l1.45-.45V7.48H35.77Zm17.28-.86c0-2.5-1.53-4.16-3.84-4.16-2.46,0-4.11,1.9-4.11,4.75,0,2.58,1.58,4.29,3.89,4.29A5.59,5.59,0,0,0,48.44,18l-.13-.17a5.87,5.87,0,0,1-2.86.72c-1.73,0-2.83-1.35-2.83-3.75V14.6Zm-3.9-3.76c1.37,0,2.13,1.23,2.13,3.34l-4.28.13C42.73,12,43.46,10.84,44.78,10.84ZM71,18.33V10.44h-.16L68.07,11v.16l1.17.51v6.26a2.78,2.78,0,0,1-2,.8,2,2,0,0,1-2-2.11V10.44h-.16L62.3,11v.16l1.18.51v5.2a2.58,2.58,0,0,0,2.79,2.66,4.51,4.51,0,0,0,3-1.2l.26,1.2h.16L72.33,19v-.16ZM59.56,13.1a2.62,2.62,0,0,0-2.86-2.66,4.7,4.7,0,0,0-3.12,1.23l-.07-1.23h-.16L50.68,11v.16l1.18.51v7.09l-1.21.45v.16H55v-.16l-1.33-.45V12.07a2.92,2.92,0,0,1,2.09-.83,2,2,0,0,1,2.09,2.1v5.37l-1.2.45v.16h4.29v-.16l-1.33-.45Z"/></g></g></g></svg>