<svg xmlns="http://www.w3.org/2000/svg" viewBox="0 0 96 28"><defs><style>.cls-1{fill:#f7f4e5;opacity:0.7;}.cls-2{fill:#2d8e8c;}</style></defs><g id="レイヤー_2" data-name="レイヤー 2"><g id="sysbtn_hover" data-name="sysbtn hover"><g id="qload2"><g id="button"><path class="cls-1" d="M14,27A13,13,0,0,1,14,1H82a13,13,0,0,1,0,26Z"/><path id="sysbtn" class="cls-2" d="M82,2a12,12,0,0,1,0,24H14A12,12,0,0,1,14,2H82m0-2H14a14,14,0,0,0,0,28H82A14,14,0,0,0,82,0Z"/></g><path class="cls-2" d="M29.48,21.87A3.55,3.55,0,0,1,26,19.24c2.33-.69,3.79-2.88,3.79-5.84,0-3.65-2.19-6.08-5.49-6.08s-5.46,2.43-5.46,6.08S20.9,19.32,24,19.48a4.3,4.3,0,0,0,4.19,3.2,5.36,5.36,0,0,0,3-.93l0-.17A5,5,0,0,1,29.48,21.87ZM24.29,19c-2.18,0-3.39-2-3.39-5.59s1.21-5.57,3.39-5.57,3.42,2,3.42,5.57S26.5,19,24.29,19ZM33,17.27a1.06,1.06,0,0,0-1.15,1.09,1.15,1.15,0,0,0,2.3,0A1.06,1.06,0,0,0,33,17.27ZM51.3,10.44A4.23,4.23,0,0,0,46.86,15a4.44,4.44,0,1,0,8.87,0A4.23,4.23,0,0,0,51.3,10.44Zm0,8.64c-1.64,0-2.52-1.42-2.52-4.13s.88-4.11,2.52-4.11,2.51,1.41,2.51,4.11S52.93,19.08,51.3,19.08Zm-6.42-1.49-2.8,1.25H39.84V8.09l1.81-.45V7.48H36.5v.16L38,8.09V18.71l-1.47.45v.16h8.61v-.16L45,17.59Zm31.27.74v-12H76L73.2,7v.16l1.19.45v3.42a3.74,3.74,0,0,0-2.13-.62c-2.61,0-4.21,2-4.21,4.78s1.44,4.26,3.58,4.26a4,4,0,0,0,2.79-1.17l.24,1.17h.16L77.47,19v-.16ZM74.39,18a2.47,2.47,0,0,1-1.78.8c-1.7,0-2.64-1.5-2.64-4s.93-4,2.61-4a2.91,2.91,0,0,1,1.81.65ZM64.88,13.1c0-1.61-1.28-2.66-3.1-2.66a6.32,6.32,0,0,0-3.4,1.05l.07.21a6.05,6.05,0,0,1,2.43-.46,2,2,0,0,1,2.24,2.1v1c-3.28.08-5.46,1.33-5.46,3.15,0,1.27,1,2,2.53,2a4.31,4.31,0,0,0,3-1.2l.24,1.2h.16L66.21,19v-.16l-1.33-.48Zm-1.76,4.77A3.17,3.17,0,0,1,61,18.7a1.37,1.37,0,0,1-1.51-1.54c0-1.5,1.35-2.42,3.62-2.53Z"/></g></g></g></svg>