<svg xmlns="http://www.w3.org/2000/svg" viewBox="0 0 96 28"><defs><style>.cls-1{fill:#f7f4e5;opacity:0.7;}.cls-2{fill:#2d8e8c;}</style></defs><g id="レイヤー_2" data-name="レイヤー 2"><g id="sysbtn_hover" data-name="sysbtn hover"><g id="qsave2"><g id="button"><path class="cls-1" d="M14,27A13,13,0,0,1,14,1H82a13,13,0,0,1,0,26Z"/><path id="sysbtn" class="cls-2" d="M82,2a12,12,0,0,1,0,24H14A12,12,0,0,1,14,2H82m0-2H14a14,14,0,0,0,0,28H82A14,14,0,0,0,82,0Z"/></g><path class="cls-2" d="M30.77,21.87a3.57,3.57,0,0,1-3.49-2.63c2.34-.69,3.8-2.88,3.8-5.84,0-3.65-2.2-6.08-5.5-6.08s-5.45,2.43-5.45,6.08,2.06,5.92,5.15,6.08a4.31,4.31,0,0,0,4.19,3.2,5.37,5.37,0,0,0,3-.93l0-.17A4.9,4.9,0,0,1,30.77,21.87ZM25.58,19c-2.17,0-3.39-2-3.39-5.59s1.22-5.57,3.39-5.57S29,9.8,29,13.4,27.79,19,25.58,19ZM39.89,9.93A1.94,1.94,0,0,1,42,7.81l3.07,1.88.21,0,.14-1.6A8.1,8.1,0,0,0,42,7.32c-2.42,0-4,1.1-4,3.07,0,3.28,6.36,3.67,6.36,6.4,0,1.38-1,2.18-2.82,2.18l-3.25-1.73-.22,0L38,18.62a8.23,8.23,0,0,0,3.63.86c2.64,0,4.64-.88,4.64-3.14C46.24,12.94,39.89,12.58,39.89,9.93ZM34.3,17.27a1.07,1.07,0,0,0-1.15,1.09,1.16,1.16,0,0,0,2.31,0A1.06,1.06,0,0,0,34.3,17.27Zm38.34,1.32c-1.73,0-2.83-1.35-2.83-3.75V14.6h6.06c0-2.5-1.53-4.16-3.84-4.16-2.46,0-4.11,1.9-4.11,4.75,0,2.58,1.58,4.29,3.89,4.29A5.59,5.59,0,0,0,75.63,18l-.13-.17A5.87,5.87,0,0,1,72.64,18.59ZM72,10.84c1.37,0,2.13,1.23,2.13,3.34l-4.28.13C69.92,12,70.66,10.84,72,10.84Zm-8.16-.08,1.3.45-2.39,6.1-2.35-6.1,1.25-.45V10.6H57.28v.16l1.17.45,3.2,8.11h.83l3.17-8.11,1.17-.45V10.6h-3ZM55.23,13.1c0-1.61-1.28-2.66-3.1-2.66a6.32,6.32,0,0,0-3.4,1.05l.07.21a6.05,6.05,0,0,1,2.43-.46,2,2,0,0,1,2.24,2.1v1c-3.28.08-5.46,1.33-5.46,3.15,0,1.27,1,2,2.53,2a4.31,4.31,0,0,0,3-1.2l.24,1.2h.16L56.56,19v-.16l-1.33-.48Zm-1.76,4.77a3.17,3.17,0,0,1-2.11.83,1.37,1.37,0,0,1-1.5-1.54c0-1.5,1.34-2.42,3.61-2.53Z"/></g></g></g></svg>