<svg xmlns="http://www.w3.org/2000/svg" viewBox="0 0 96 28"><defs><style>.cls-1{fill:#f7f4e5;opacity:0.7;}.cls-2{fill:#2d8e8c;}</style></defs><g id="レイヤー_2" data-name="レイヤー 2"><g id="sysbtn_hover" data-name="sysbtn hover"><g id="save2"><g id="button"><path class="cls-1" d="M14,27A13,13,0,0,1,14,1H82a13,13,0,0,1,0,26Z"/><path id="sysbtn" class="cls-2" d="M82,2a12,12,0,0,1,0,24H14A12,12,0,0,1,14,2H82m0-2H14a14,14,0,0,0,0,28H82A14,14,0,0,0,82,0Z"/></g><path class="cls-2" d="M31,9.93a1.94,1.94,0,0,1,2.13-2.12l3.07,1.88.21,0,.14-1.6a8.06,8.06,0,0,0-3.42-.81c-2.42,0-4,1.1-4,3.07,0,3.28,6.35,3.67,6.35,6.4,0,1.38-1,2.18-2.82,2.18l-3.25-1.73-.22,0L29,18.62a8.23,8.23,0,0,0,3.63.86c2.64,0,4.64-.88,4.64-3.14C37.31,12.94,31,12.58,31,9.93Zm32.75,8.66c-1.72,0-2.83-1.35-2.83-3.75V14.6H67c0-2.5-1.54-4.16-3.84-4.16-2.47,0-4.12,1.9-4.12,4.75,0,2.58,1.59,4.29,3.89,4.29A5.64,5.64,0,0,0,66.71,18l-.13-.17A5.91,5.91,0,0,1,63.71,18.59ZM63,10.84c1.38,0,2.13,1.23,2.13,3.34l-4.27.13C61,12,61.73,10.84,63,10.84ZM46.31,13.1c0-1.61-1.28-2.66-3.11-2.66a6.26,6.26,0,0,0-3.39,1.05l.06.21a6.05,6.05,0,0,1,2.43-.46,2,2,0,0,1,2.24,2.1v1c-3.28.08-5.45,1.33-5.45,3.15,0,1.27,1,2,2.53,2a4.3,4.3,0,0,0,3-1.2l.24,1.2H45L47.63,19v-.16l-1.32-.48Zm-1.77,4.77a3.17,3.17,0,0,1-2.11.83,1.37,1.37,0,0,1-1.5-1.54c0-1.5,1.34-2.42,3.61-2.53Zm10.34-7.11,1.3.45-2.39,6.1-2.35-6.1,1.25-.45V10.6H48.35v.16l1.17.45,3.2,8.11h.83l3.17-8.11,1.17-.45V10.6h-3Z"/></g></g></g></svg>