<svg xmlns="http://www.w3.org/2000/svg" viewBox="0 0 96 28"><defs><style>.cls-1{fill:#3d997a;}</style></defs><g id="レイヤー_2" data-name="レイヤー 2"><g id="sysbtn"><g id="screen"><path id="sysbtn-2" data-name="sysbtn" class="cls-1" d="M82,2a12,12,0,0,1,0,24H14A12,12,0,0,1,14,2H82m0-2H14a14,14,0,0,0,0,28H82A14,14,0,0,0,82,0Z"/><path class="cls-1" d="M65.42,14.6c0-2.5-1.54-4.16-3.84-4.16-2.47,0-4.12,1.9-4.12,4.75,0,2.58,1.59,4.29,3.89,4.29A5.64,5.64,0,0,0,65.18,18l-.13-.17a5.91,5.91,0,0,1-2.87.72c-1.72,0-2.83-1.35-2.83-3.75V14.6Zm-3.91-3.76c1.38,0,2.13,1.23,2.13,3.34l-4.27.13C59.46,12,60.2,10.84,61.51,10.84ZM20.7,9.93a1.94,1.94,0,0,1,2.13-2.12L25.9,9.69l.21,0,.14-1.6a8.13,8.13,0,0,0-3.42-.81c-2.42,0-4,1.1-4,3.07,0,3.28,6.36,3.67,6.36,6.4,0,1.38-1,2.18-2.82,2.18l-3.25-1.73-.22,0-.16,1.43a8.2,8.2,0,0,0,3.63.86c2.64,0,4.64-.88,4.64-3.14C27.05,12.94,20.7,12.58,20.7,9.93ZM41.43,12l-.06-1.6h-.16L38.54,11v.16l1.18.46v7.14l-1.22.45v.16H43v-.16l-1.49-.45V12.42a2.4,2.4,0,0,1,1.89-.81,2.73,2.73,0,0,1,2,.73l.16.05.23-1.6a2.45,2.45,0,0,0-1.35-.35A3.76,3.76,0,0,0,41.43,12Zm-7.55,6.55c-1.7,0-2.8-1.41-2.8-3.89s1-3.86,2.66-3.86l2.41,1.68.18,0,.1-1.47a6.08,6.08,0,0,0-2.77-.64c-2.66,0-4.45,1.9-4.45,4.75,0,2.58,1.58,4.29,3.89,4.29A5.22,5.22,0,0,0,36.76,18l-.14-.17A5.4,5.4,0,0,1,33.88,18.59Zm21.36-4c0-2.5-1.53-4.16-3.84-4.16-2.47,0-4.11,1.9-4.11,4.75,0,2.58,1.58,4.29,3.89,4.29A5.59,5.59,0,0,0,55,18l-.13-.17a5.87,5.87,0,0,1-2.86.72c-1.73,0-2.84-1.35-2.84-3.75V14.6Zm-3.9-3.76c1.37,0,2.12,1.23,2.12,3.34l-4.27.13C49.29,12,50,10.84,51.34,10.84Zm25,7.87V13.1a2.62,2.62,0,0,0-2.87-2.66,4.74,4.74,0,0,0-3.12,1.23l-.06-1.23h-.16L67.41,11v.16l1.19.51v7.09l-1.22.45v.16h4.31v-.16l-1.33-.45V12.07a2.9,2.9,0,0,1,2.08-.83,2,2,0,0,1,2.1,2.1v5.37l-1.2.45v.16h4.29v-.16Z"/></g></g></g></svg>