<svg xmlns="http://www.w3.org/2000/svg" viewBox="0 0 96 28"><defs><style>.cls-1{fill:#3d997a;}</style></defs><g id="レイヤー_2" data-name="レイヤー 2"><g id="sysbtn"><g id="skip"><path id="sysbtn-2" data-name="sysbtn" class="cls-1" d="M82,2a12,12,0,0,1,0,24H14A12,12,0,0,1,14,2H82m0-2H14a14,14,0,0,0,0,28H82A14,14,0,0,0,82,0Z"/><path class="cls-1" d="M53.13,8.89a1,1,0,0,0,1-1,1.05,1.05,0,0,0-2.1,0A1,1,0,0,0,53.13,8.89ZM42.79,6.36h-.16L39.86,7v.16L41,7.64V18.71l-1.2.45v.16h4.29v-.16l-1.33-.45ZM31.66,9.93a1.94,1.94,0,0,1,2.13-2.12l3.07,1.88.21,0,.14-1.6a8.13,8.13,0,0,0-3.42-.81c-2.42,0-4,1.1-4,3.07,0,3.28,6.36,3.67,6.36,6.4,0,1.38-1,2.18-2.82,2.18l-3.25-1.73-.22,0-.16,1.43a8.2,8.2,0,0,0,3.63.86C36,19.48,38,18.6,38,16.34,38,12.94,31.66,12.58,31.66,9.93ZM45,14l3.07-2.77,1.17-.46V10.6h-3.1v.16l1.23.45-4,3.6,3.28,3.9-1,.45v.16h4.34v-.16l-1.23-.45Zm17.47-3.55a3.8,3.8,0,0,0-2.72,1.15l-.06-1.15h-.16L56.85,11v.16l1.19.51v10.3l-1.22.44v.16h4.31v-.16l-1.33-.44V18.86a3.7,3.7,0,0,0,2.11.62c2.63,0,4.23-2,4.23-4.78S64.67,10.44,62.47,10.44Zm-.86,8.64a2.77,2.77,0,0,1-1.81-.65V11.94a2.49,2.49,0,0,1,1.78-.78c1.68,0,2.64,1.5,2.64,3.95S63.29,19.08,61.61,19.08ZM54,10.44h-.16L51.06,11v.16l1.19.51v7.09L51,19.16v.16h4.18v-.16L54,18.71Z"/></g></g></g></svg>