<svg xmlns="http://www.w3.org/2000/svg" viewBox="0 0 96 28"><defs><style>.cls-1{fill:#f7f4e5;opacity:0.7;}.cls-2{fill:#2d8e8c;}</style></defs><g id="レイヤー_2" data-name="レイヤー 2"><g id="sysbtn_hover" data-name="sysbtn hover"><g id="sleep2"><g id="button"><path class="cls-1" d="M14,27A13,13,0,0,1,14,1H82a13,13,0,0,1,0,26Z"/><path id="sysbtn" class="cls-2" d="M82,2a12,12,0,0,1,0,24H14A12,12,0,0,1,14,2H82m0-2H14a14,14,0,0,0,0,28H82A14,14,0,0,0,82,0Z"/></g><path class="cls-2" d="M73,17.93H69c-.59,0-.91-.22-.91-.67a1.6,1.6,0,0,1,.59-1.06,4.65,4.65,0,0,0,2,.38c2.24,0,3.75-1.23,3.75-3.07a2.81,2.81,0,0,0-1-2.18h1.79v-.16l-.24-1.29h-.16L72.9,11a4.52,4.52,0,0,0-2.26-.54c-2.27,0-3.78,1.23-3.78,3.07A2.8,2.8,0,0,0,68.32,16a2.83,2.83,0,0,0-1.1,2,1.2,1.2,0,0,0,.62,1.08c-1,.5-1.55,1.11-1.55,1.88,0,1,1.49,1.69,4.48,1.69,2.83,0,4.72-1,4.72-2.62C75.49,18.78,74.48,17.93,73,17.93Zm-2.32-7.09c1.25,0,1.89.85,1.89,2.67s-.64,2.66-1.89,2.66-1.92-.83-1.92-2.66S69.38,10.84,70.64,10.84Zm.13,11.44c-2.08,0-3.15-.59-3.15-1.71a1.67,1.67,0,0,1,.54-1.3,2.39,2.39,0,0,0,.8.13h3.91c.89,0,1.39.42,1.39,1.17C74.26,21.69,73.06,22.28,70.77,22.28ZM36.38,10.44A4.23,4.23,0,0,0,32,15a4.24,4.24,0,0,0,4.43,4.53A4.24,4.24,0,0,0,40.82,15,4.23,4.23,0,0,0,36.38,10.44Zm0,8.64c-1.63,0-2.51-1.42-2.51-4.13s.88-4.11,2.51-4.11S38.9,12.25,38.9,15,38,19.08,36.38,19.08ZM29.6,17.32,26.51,19C24.29,19,23,16.9,23,13.4s1.31-5.57,3.53-5.59l3,1.78.18.05L29.78,8a8.1,8.1,0,0,0-3.35-.67c-3.31,0-5.52,2.43-5.52,6.08s2.21,6.08,5.52,6.08a8.67,8.67,0,0,0,3.51-.67l-.16-1.54Zm34-6.72H57.7V9.22A2.18,2.18,0,0,1,60,6.74l2.64,1.84.17.05.66-1.46A7.32,7.32,0,0,0,60,6.36c-2.39,0-4.05,1.26-4.05,3.18V10.6H54.61V11h1.33v7.71l-1.22.45v.16h4.47v-.16l-1.49-.45V11h2.93l1.18.56v7.15l-1.23.45v.16h4.19v-.16l-1.2-.45ZM51.79,13.1a2.61,2.61,0,0,0-2.86-2.66,4.74,4.74,0,0,0-3.12,1.23l-.06-1.23h-.17L42.91,11v.16l1.19.51v7.09l-1.22.45v.16h4.31v-.16l-1.33-.45V12.07a2.9,2.9,0,0,1,2.08-.83A2,2,0,0,1,50,13.34v5.37l-1.2.45v.16h4.29v-.16l-1.33-.45Z"/></g></g></g></svg>