<svg xmlns="http://www.w3.org/2000/svg" viewBox="0 0 96 28"><defs><style>.cls-1{fill:#f7f4e5;opacity:0.7;}.cls-2{fill:#2d8e8c;}</style></defs><g id="レイヤー_2" data-name="レイヤー 2"><g id="sysbtn_hover" data-name="sysbtn hover"><g id="title2"><g id="button"><path class="cls-1" d="M14,27A13,13,0,0,1,14,1H82a13,13,0,0,1,0,26Z"/><path id="sysbtn" class="cls-2" d="M82,2a12,12,0,0,1,0,24H14A12,12,0,0,1,14,2H82m0-2H14a14,14,0,0,0,0,28H82A14,14,0,0,0,82,0Z"/></g><path class="cls-2" d="M42.6,10.44h-.16L39.66,11v.16l1.18.51v7.09l-1.22.45v.16H43.8v-.16l-1.2-.45ZM28.5,7.64l.1,1.57h.16L31.56,8h.85V18.71l-1.71.45v.16H36v-.16l-1.71-.45V8h.87L38,9.21h.16l.08-1.57V7.48H28.5ZM41.72,8.89a1,1,0,0,0,1-1,1.05,1.05,0,0,0-2.1,0A1,1,0,0,0,41.72,8.89Zm8,9.76c-.85,0-1.25-.61-1.25-1.5V11h3v-.4h-3V8.28h-.16L46.58,10.6h-1.2V11h1.33v6.31a2.15,2.15,0,0,0,2.34,2.17,3.66,3.66,0,0,0,2.64-1.18l-.11-.19A3.64,3.64,0,0,1,49.72,18.65Zm14.11-.06c-1.72,0-2.83-1.35-2.83-3.75V14.6h6.07c0-2.5-1.54-4.16-3.84-4.16-2.47,0-4.12,1.9-4.12,4.75,0,2.58,1.59,4.29,3.89,4.29A5.64,5.64,0,0,0,66.83,18l-.13-.17A5.91,5.91,0,0,1,63.83,18.59Zm-.67-7.75c1.38,0,2.13,1.23,2.13,3.34L61,14.31C61.11,12,61.85,10.84,63.16,10.84ZM55.9,6.36h-.16L53,7v.16l1.17.45V18.71l-1.2.45v.16h4.17v-.16l-1.21-.45Z"/></g></g></g></svg>